# xmcd
#
# Track frame offsets: 
#        150
#        18692
#        31070
#        41892
#        54951
#        80013
#        100552
#        114836
#        131338
#        142963
#        161354
#        172925
#        183451
#        201742
#        215688
#        227507
#        243023
#        260260
#        285988
#        303227
#
# Disc length: 4219 seconds
#
# Revision: 0
# Processed by: cddbd v1.5.2PL0 Copyright (c) Steve Scherf et al.
# Submitted via: ExactAudioCopy v1.1
#
DISCID=02107914
DTITLE=Various Artist - 1000 Klassiekers Radio 2 Vol. 04 - CD 1
DYEAR=2012
DGENRE=Pop
TTITLE0=Michael Jackson - Bad
TTITLE1=The Monkees - I'm A Believer
TTITLE2=Dusty Springfield - Son-Of-A Preacher Man
TTITLE3=Percy Sledge - When A Man Loves A Woman
TTITLE4=Raymond Van Het Groenewoud - Twee Meisjes
TTITLE5=Billy Joel - Piano Man
TTITLE6=Andy Williams - Can't Take My Eyes Off You
TTITLE7=Julien Clerc - Hélène
TTITLE8=The Platters - Only You (And You Alone)
TTITLE9=Jermaine Jackson and Pia Zadora - When The Rain Begins To Fall
TTITLE10=Paul Anka - Put Your Head On My Shoulder
TTITLE11=Fats Domino - Blueberry Hill
TTITLE12=Earth, Wind and Fire - Let's Groove
TTITLE13=Bob Dylan - I Want You
TTITLE14=The Mamas and The Papas - California Dreamin'
TTITLE15=Joe Dassin - Et Si Tu N'Existais Pas
TTITLE16=Johan Verminnen - Mooie Dagen
TTITLE17=Thin Lizzy - Whisky In The Jar
TTITLE18=Simon and Garfunkel - Mrs. Robinson
TTITLE19=Lou Reed - Vicious
EXTD=
EXTT0=
EXTT1=
EXTT2=
EXTT3=
EXTT4=
EXTT5=
EXTT6=
EXTT7=
EXTT8=
EXTT9=
EXTT10=
EXTT11=
EXTT12=
EXTT13=
EXTT14=
EXTT15=
EXTT16=
EXTT17=
EXTT18=
EXTT19=
PLAYORDER=
